<svg height="14" viewBox="0 0 8 14" width="8" xmlns="http://www.w3.org/2000/svg"><path d="m56 9c0-.11222445.0549828-.23847695.137457-.32264529l6.4054983-6.53707415c.0824743-.08416834.2061856-.14028056.3161512-.14028056.1099657 0 .233677.05611222.3161512.14028056l.6872853.70140281c.0824742.08416833.137457.21042084.137457.32264529s-.0549828.23847695-.137457.32264529l-5.4020619 5.51302605 5.4020619 5.5130261c.0824742.0841683.137457.2104208.137457.3226452 0 .1262525-.0549828.238477-.137457.3226453l-.6872853.7014028c-.0824742.0841684-.2061855.1402806-.3161512.1402806-.1099656 0-.2336769-.0561122-.3161512-.1402806l-6.4054983-6.53707411c-.0824742-.08416834-.137457-.21042084-.137457-.32264529z" fill="#727273" fill-rule="evenodd" transform="translate(-56 -2)"/></svg>