<svg height="17" viewBox="0 0 18 17" width="18" xmlns="http://www.w3.org/2000/svg"><path d="m17 14.940445c0 .8678054-.3009494 1.5946742-.9028571 2.1806283-.6019078.5859541-1.348567.8789267-2.24.8789267-1.0285766 0-1.9238058-.3708514-2.6857143-1.1125654l-8.88000003-8.6335079c-.86095668-.8529711-1.29142857-1.85797851-1.29142857-3.01505235 0-1.17932527.41904343-2.18062416 1.25714286-3.00392671.83809943-.82330254 1.86285108-1.23494764 3.07428571-1.23494764 1.20381554 0 2.24380514.41906213 3.12 1.25719895l6.91428573 6.7421466c.0761908.0741714.1142857.15575872.1142857.2447644 0 .11867424-.1161893.29112016-.3485714.51734293s-.4095232.33933242-.5314286.33933242c-.0990481 0-.1866663-.0370851-.2628571-.1112565l-6.92571433-6.75327226c-.60190777-.57111978-1.29142468-.85667539-2.06857143-.85667539-.80762308 0-1.48952103.27813858-2.04571428.83442409-.55619326.5562855-.83428572 1.22752661-.83428572 2.01374345 0 .77879971.28952092 1.45004081.86857143 2.01374346l8.86857143 8.64463355c.4800024.4672798 1.0323778.7009162 1.6571429.7009162.4876214 0 .8914269-.1557576 1.2114285-.4672775s.48-.7046224.48-1.1793194c0-.6082055-.2399976-1.14594-.72-1.6132199l-6.63999997-6.4640052c-.19809623-.17801137-.42666537-.26701571-.68571429-.26701571-.22095348 0-.4038088.07046177-.54857143.21138743-.14476262.14092566-.21714285.31893436-.21714285.53403142 0 .23734848.09523714.45615083.28571428.65641361l4.68571426 4.56151835c.0761909.0741714.1142857.1557587.1142857.2447644 0 .1186742-.118094.2929744-.3542857.5229057-.2361916.2299314-.4152375.3448953-.5371428.3448953-.0914291 0-.1752377-.0370851-.2514286-.1112565l-4.68571429-4.56151835c-.4800024-.45244554-.72-1.00501419-.72-1.65772251 0-.60820549.21714069-1.12368899.65142858-1.54646597.43428788-.42277698.9638064-.63416231 1.58857142-.63416231.67047955 0 1.23809292.23363641 1.70285715.70091623l6.64000004 6.46400521c.7619085.7268798 1.1428571 1.5983806 1.1428571 2.6145288z" fill="#727273" fill-rule="evenodd" transform="matrix(0 1 -1 0 18.5 -.5)"/></svg>