<svg height="12" viewBox="0 0 12 12" width="12" xmlns="http://www.w3.org/2000/svg"><path d="m10.0234494 3.22655323-2.77344076 2.77344081 2.77344076 2.77344081 1.1250014-1.12500135c.1406252-.14843767.3593754-.18750022.5468756-.10937513.1796878.0781251.3046879.25781281.3046879.46093805v3.50000418c0 .2734378-.2265628.5000006-.5000006.5000006h-3.50000416c-.20312525 0-.38281296-.1250002-.46093805-.3125004-.0781251-.1796877-.03906255-.398438.10937513-.5390631l1.12500134-1.1250014-2.77344081-2.77344077-2.7734408 2.77344077 1.12500134 1.1250014c.14843767.1406251.18750022.3593754.10937513.5390631-.0781251.1875002-.25781281.3125004-.46093805.3125004h-3.50000417c-.27343783 0-.5000006-.2265628-.5000006-.5000006v-3.50000418c0-.20312524.12500015-.38281295.31250037-.46093805.17968772-.07812509.39843798-.03906254.53906315.10937513l1.12500134 1.12500135 2.7734408-2.77344081-2.7734408-2.77344081-1.12500134 1.12500134c-.09375012.09375012-.21875027.14843768-.35156292.14843768-.06250008 0-.13281266-.01562502-.18750023-.03906255-.18750022-.07812509-.31250037-.2578128-.31250037-.46093804v-3.50000418c0-.27343782.22656277-.50000059.5000006-.50000059h3.50000417c.20312524 0 .38281295.12500015.46093805.31250037.07812509.17968771.03906254.39843797-.10937513.53906314l-1.12500134 1.12500134 2.7734408 2.77344081 2.77344081-2.77344081-1.12500134-1.12500134c-.14843768-.14062517-.18750023-.35937543-.10937513-.53906314.07812509-.18750022.2578128-.31250037.46093805-.31250037h3.50000416c.2734378 0 .5000006.22656277.5000006.50000059v3.50000418c0 .20312524-.1250001.38281295-.3046879.46093804-.0625.02343753-.1328126.03906255-.1953127.03906255-.1328126 0-.2578128-.05468756-.3515629-.14843768z" fill="#fff" fill-rule="evenodd"/></svg>