<svg height="19" viewBox="0 0 19 19" width="19" xmlns="http://www.w3.org/2000/svg"><path d="m36.5 0c1.7110217 0 3.2943548.42775557 4.75 1.28326613s2.6112233 2.01108871 3.4667339 3.46673387c.8555105 1.45564516 1.2832661 3.0389783 1.2832661 4.75s-.4277556 3.2943548-1.2832661 4.75c-.8555106 1.4556452-2.0110887 2.6112233-3.4667339 3.4667339-1.4556452.8555105-3.0389783 1.2832661-4.75 1.2832661s-3.2943548-.4277556-4.75-1.2832661c-1.4556452-.8555106-2.6112233-2.0110887-3.4667339-3.4667339-.8555105-1.4556452-1.2832661-3.0389783-1.2832661-4.75s.4277556-3.29435484 1.2832661-4.75c.8555106-1.45564516 2.0110887-2.61122331 3.4667339-3.46673387s3.0389783-1.28326613 4.75-1.28326613zm-.0000226 17.1612903c1.3790289 0 2.6559074-.344758 3.830636-1.0342742 1.1747286-.6895161 2.1068498-1.6216396 2.7963643-2.7963709.6895145-1.1747314 1.0342717-2.4516129 1.0342717-3.8306452 0-1.37903226-.3447572-2.65591378-1.0342717-3.83064516s-1.6216357-2.10685484-2.7963643-2.79637097-2.4516071-1.03427419-3.830636-1.03427419c-1.379029 0-2.6559075.34475806-3.8306361 1.03427419s-2.1068498 1.62163959-2.7963643 2.79637097-1.0342717 2.4516129-1.0342717 3.83064516c0 1.3790323.3447572 2.6559138 1.0342717 3.8306452.6895145 1.1747313 1.6216357 2.1068548 2.7963643 2.7963709 1.1747286.6895162 2.4516071 1.0342742 3.8306361 1.0342742zm3.2177342-5.4778226c.1532255-.2043008.3575258-.3192202.6129018-.344758.2553759-.0255379.4788295.044691.6703613.2106855.1915318.1659944.3000663.3766799.325604.6320564.0255378.2553766-.0383063.4724461-.1915318.6512097-.587364.6895161-1.283263 1.2258064-2.0876966 1.608871-.8044336.3830645-1.6535581.5745967-2.5473729.5745967-.8938149 0-1.7429394-.1915322-2.547373-.5745967-.8044336-.3830646-1.5003326-.9193549-2.0876966-1.608871-.1532255-.1787636-.2170696-.3958331-.1915318-.6512097.0255377-.2553765.1340722-.466062.325604-.6320564.1915318-.1659945.4149854-.2362234.6703613-.2106855.255376.0255378.4596763.1404572.6129018.344758.4086014.4596775.8938149.8235888 1.4556417 1.0917339.5618268.2681452 1.1491908.4022178 1.7620926.4022178.6129017 0 1.2002657-.1340726 1.7620925-.4022178.5618268-.2681451 1.0470403-.6320564 1.4556417-1.0917339zm-6.2822431-2.79637093c-.3319886 0-.6192863-.12130395-.8618931-.36391129-.2426067-.24260733-.3639104-.52990572-.3639104-.86189516s.1213037-.61928783.3639104-.86189516c.2426068-.24260733.5299045-.36391129.8618931-.36391129.3319887 0 .6192864.12130396.8618931.36391129.2426068.24260733.3639105.52990572.3639105.86189516s-.1213037.61928783-.3639105.86189516c-.2426067.24260734-.5299044.36391129-.8618931.36391129zm6.1290177 0c-.3319887 0-.6192864-.12130395-.8618931-.36391129-.2426068-.24260733-.3639105-.52990572-.3639105-.86189516s.1213037-.61928783.3639105-.86189516c.2426067-.24260733.5299044-.36391129.8618931-.36391129.3319886 0 .6192863.12130396.8618931.36391129.2426067.24260733.3639104.52990572.3639104.86189516s-.1213037.61928783-.3639104.86189516c-.2426068.24260734-.5299045.36391129-.8618931.36391129z" fill="#727273" fill-rule="evenodd" transform="translate(-27)"/></svg>