<svg height="10" viewBox="0 0 13 10" width="13" xmlns="http://www.w3.org/2000/svg"><path d="m13 .75v8.5c0 .203125-.1160714.3828125-.2829241.4609375-.0580357.0234375-.1233259.0390625-.1813616.0390625-.1233259 0-.2393973-.046875-.3264509-.1484375l-2.92354911-3.1484375v1.296875c0 1.2421875-.9358259 2.25-2.08928572 2.25h-5.10714286c-1.15345982 0-2.08928571-1.0078125-2.08928571-2.25v-5.5c0-1.2421875.93582589-2.25 2.08928571-2.25h5.10714286c1.15345982 0 2.08928572 1.0078125 2.08928572 2.25v1.2890625l2.92354911-3.140625c.0870536-.1015625.203125-.1484375.3264509-.1484375.0580357 0 .1233259.015625.1813616.0390625.1668527.078125.2829241.2578125.2829241.4609375z" fill="#fff" fill-rule="evenodd" transform=""/></svg>