<svg height="14" viewBox="0 0 8 14" width="8" xmlns="http://www.w3.org/2000/svg"><path d="m82 9c0 .11222445-.0549828.23847695-.137457.32264529l-6.4054983 6.53707411c-.0824743.0841684-.2061856.1402806-.3161512.1402806-.1099657 0-.233677-.0561122-.3161512-.1402806l-.6872853-.7014028c-.0824742-.0841683-.137457-.1963928-.137457-.3226453 0-.1122244.0549828-.2384769.137457-.3226452l5.4020619-5.5130261-5.4020619-5.51302605c-.0824742-.08416834-.137457-.21042084-.137457-.32264529s.0549828-.23847696.137457-.32264529l.6872853-.70140281c.0824742-.08416834.2061855-.14028056.3161512-.14028056.1099656 0 .2336769.05611222.3161512.14028056l6.4054983 6.53707415c.0824742.08416834.137457.21042084.137457.32264529z" fill="#727273" fill-rule="evenodd" transform="translate(-74 -2)"/></svg>