<svg height="14" viewBox="0 0 4 14" width="4" xmlns="http://www.w3.org/2000/svg"><path d="m169 12c.555556 0 1.027778.1944444 1.416667.5833333s.583333.8611111.583333 1.4166667-.194444 1.0277778-.583333 1.4166667-.861111.5833333-1.416667.5833333-1.027778-.1944444-1.416667-.5833333-.583333-.8611111-.583333-1.4166667.194444-1.0277778.583333-1.4166667.861111-.5833333 1.416667-.5833333zm-2-3c0-.55555556.194444-1.02777778.583333-1.41666667s.861111-.58333333 1.416667-.58333333 1.027778.19444444 1.416667.58333333.583333.86111111.583333 1.41666667-.194444 1.0277778-.583333 1.4166667-.861111.5833333-1.416667.5833333-1.027778-.1944444-1.416667-.5833333-.583333-.86111114-.583333-1.4166667zm0 10c0-.5555556.194444-1.0277778.583333-1.4166667s.861111-.5833333 1.416667-.5833333 1.027778.1944444 1.416667.5833333.583333.8611111.583333 1.4166667-.194444 1.0277778-.583333 1.4166667-.861111.5833333-1.416667.5833333-1.027778-.1944444-1.416667-.5833333-.583333-.8611111-.583333-1.4166667z" fill="#fff" fill-rule="evenodd" transform="translate(-167 -7)"/></svg>