<svg height="12" viewBox="0 0 12 12" width="12" xmlns="http://www.w3.org/2000/svg"><path d="m12 9.47727273c0 .30681818-.1363636.90340907-.2642045 1.18465907-.1789773.4176137-.65625.6903409-1.0397728.9034091-.5028409.2727273-1.01420452.4346591-1.58522725.4346591-.79261363 0-1.50852272-.3238636-2.23295454-.5880682-.51988636-.1875-1.02272727-.4176136-1.49147727-.7073863-1.44886364-.89488641-3.19602273-2.6420455-4.09090909-4.09090914-.28977273-.46875-.51988637-.97159091-.70738637-1.49147727-.26420454-.72443182-.58806818-1.44034091-.58806818-2.23295454 0-.57102273.16193182-1.08238637.43465909-1.58522728.21306818-.38352272.48579546-.86079545.90340909-1.03977272.28125-.12784091.87784091-.26420455 1.18465909-.26420455.05965909 0 .11931818 0 .17897728.02556818.17897727.05965909.36647727.47727273.45170454.64772728.27272727.48579545.53693182.98011363.81818182 1.45738636.13636364.22159091.39204545.49431818.39204545.75852273 0 .51988636-1.54261363 1.27840909-1.54261363 1.73863636 0 .23011364.21306818.52840909.33238636.73295454.86079546 1.55113637 1.93465909 2.625 3.48579546 3.48579546.20454545.11931818.5028409.33238636.73295454.33238636.46022727 0 1.21875-1.54261363 1.73863636-1.54261363.26420455 0 .53693182.25568181.75852273.39204545.47727272.28125.97159092.54545455 1.45738632.81818182.1704546.08522727.5880682.27272727.6477273.45170454.0255682.0596591.0255682.11931819.0255682.17897728z" fill="#fff" fill-rule="evenodd" transform=""/></svg>