<svg height="10" viewBox="0 0 12 10" width="12" xmlns="http://www.w3.org/2000/svg"><path d="m1.19944162 4.68837985c0 .96905074.40124792 1.85604477 1.06874446 2.55352685-.23624877.98272687-1.01811972 1.85995223-1.02749467 1.87167462-.04124979.04493582-.05249973.11136269-.02812486.16997463.02437488.05665821.07687461.0937791.13687429.0937791 1.24311856 0 2.17498873-.62128656 2.63623634-1.0042179.61312182.24030895 1.29374329.37902387 2.01373956.37902387.51374734 0 1.00686978-.07033432 1.46999238-.19537313l-6.10309336-4.91558803c-.10499946.33408806-.16687414.68380596-.16687414 1.04719999zm10.68369458 4.26108804-2.14498884-1.7270985c.65999654-.69552835 1.06124454-1.57275372 1.06124454-2.53398954 0-2.2448373-2.1487389-4.06376117-4.79997516-4.06376117-1.22061867 0-2.32873793.3927-3.17623353 1.02961641l-1.97061479-1.58838357c-.13124932-.10550149-.31874835-.08205672-.42187281.05470448l-.3674981.49234029c-.10124947.1367612-.07874959.33213433.05249973.43763582l11.03244286 8.88361637c.1312493.10550152.3187483.08205672.4218728-.05470448l.3674981-.49429402c.1012494-.13285373.0768746-.3301806-.0543748-.43568209z" fill="#fff"/></svg>